<?xml version="1.0" encoding="UTF-8" standalone="yes"?><svg xmlns="http://www.w3.org/2000/svg" xmlns:xlink="http://www.w3.org/1999/xlink" height="729pt" style="width:186px;height:729px;" version="1.1" viewBox="0 0 186 729" width="186pt"><defs><filter height="300%" id="f1" width="300%" x="-1" y="-1"><feGaussianBlur result="blurOut" stdDeviation="2"/><feColorMatrix in="blurOut" result="blurOut2" type="matrix" values="0 0 0 0 0 0 0 0 0 0 0 0 0 0 0 0 0 0 .4 0"/><feOffset dx="4" dy="4" in="blurOut2" result="blurOut3"/><feBlend in="SourceGraphic" in2="blurOut3" mode="normal"/></filter></defs><g><rect fill="#FEFECE" filter="url(#f1)" height="37.91015625" style="stroke: #A80036; stroke-width: 1.5;" width="90.0" x="44.0" y="300.0"/><text fill="#000000" font-size="12" lengthAdjust="spacingAndGlyphs" textLength="40.0" x="69.0" y="314.0">: Fl18x</text><line style="stroke: #A80036; stroke-width: 1.5;" x1="44.0" x2="134.0" y1="318.1328125" y2="318.1328125"/><text fill="#000000" font-size="10" lengthAdjust="spacingAndGlyphs" textLength="78.0" x="50.0" y="332.1328125">main Subsystem</text><rect fill="#FEFECE" filter="url(#f1)" height="108.57421875" style="stroke: #A80036; stroke-width: 1.5;" width="141.0" x="18.75" y="400.5"/><text fill="#000000" font-size="12" lengthAdjust="spacingAndGlyphs" textLength="101.0" x="38.75" y="414.5">main : Subsystem</text><line style="stroke: #A80036; stroke-width: 1.5;" x1="18.75" x2="159.75" y1="418.6328125" y2="418.6328125"/><text fill="#000000" font-size="10" lengthAdjust="spacingAndGlyphs" textLength="110.0" x="24.75" y="432.6328125">protocol SerialProtocol</text><text fill="#000000" font-size="10" lengthAdjust="spacingAndGlyphs" textLength="96.0" x="24.75" y="444.41015625">measure Parameter</text><text fill="#000000" font-size="10" lengthAdjust="spacingAndGlyphs" textLength="73.0" x="24.75" y="456.1875">unit Parameter</text><text fill="#000000" font-size="10" lengthAdjust="spacingAndGlyphs" textLength="9.0" x="24.75" y="467.96484375">...</text><text fill="#000000" font-size="10" lengthAdjust="spacingAndGlyphs" textLength="129.0" x="24.75" y="479.7421875">press_button_blue() Action</text><text fill="#000000" font-size="10" lengthAdjust="spacingAndGlyphs" textLength="129.0" x="24.75" y="491.51953125">press_button_hold() Action</text><text fill="#000000" font-size="10" lengthAdjust="spacingAndGlyphs" textLength="9.0" x="24.75" y="503.296875">...</text><rect fill="#FEFECE" filter="url(#f1)" height="37.91015625" style="stroke: #A80036; stroke-width: 1.5;" width="150.0" x="14.0" y="572.0"/><text fill="#000000" font-size="12" lengthAdjust="spacingAndGlyphs" textLength="136.0" x="21.0" y="586.0">protocol : SerialProtocol</text><line style="stroke: #A80036; stroke-width: 1.5;" x1="14.0" x2="164.0" y1="590.1328125" y2="590.1328125"/><text fill="#000000" font-size="10" lengthAdjust="spacingAndGlyphs" textLength="62.0" x="20.0" y="604.1328125">socket Serial</text><rect fill="#FEFECE" filter="url(#f1)" height="120.3515625" style="stroke: #A80036; stroke-width: 1.5;" width="166.0" x="6.0" y="104.0"/><text fill="#000000" font-size="12" lengthAdjust="spacingAndGlyphs" textLength="53.0" x="62.5" y="118.0">: QtProxy</text><line style="stroke: #A80036; stroke-width: 1.5;" x1="6.0" x2="172.0" y1="122.1328125" y2="122.1328125"/><text fill="#000000" font-size="10" lengthAdjust="spacingAndGlyphs" textLength="95.0" x="12.0" y="136.1328125">measure pyqtSignal</text><text fill="#000000" font-size="10" lengthAdjust="spacingAndGlyphs" textLength="72.0" x="12.0" y="147.91015625">unit pyqtSignal</text><text fill="#000000" font-size="10" lengthAdjust="spacingAndGlyphs" textLength="111.0" x="12.0" y="159.6875">get_measure() pyqtSlot</text><text fill="#000000" font-size="10" lengthAdjust="spacingAndGlyphs" textLength="88.0" x="12.0" y="171.46484375">get_unit() pyqtSlot</text><text fill="#000000" font-size="10" lengthAdjust="spacingAndGlyphs" textLength="9.0" x="12.0" y="183.2421875">...</text><text fill="#000000" font-size="10" lengthAdjust="spacingAndGlyphs" textLength="154.0" x="12.0" y="195.01953125">do_press_button_blue() pyqtSlot</text><text fill="#000000" font-size="10" lengthAdjust="spacingAndGlyphs" textLength="154.0" x="12.0" y="206.796875">do_press_button_hold() pyqtSlot</text><text fill="#000000" font-size="10" lengthAdjust="spacingAndGlyphs" textLength="9.0" x="12.0" y="218.57421875">...</text><rect fill="#FEFECE" filter="url(#f1)" height="34.1328125" style="stroke: #A80036; stroke-width: 1.5;" width="43.0" x="67.75" y="8.0"/><text fill="#000000" font-size="12" lengthAdjust="spacingAndGlyphs" textLength="29.0" x="74.75" y="22.0">user:</text><line style="stroke: #A80036; stroke-width: 1.5;" x1="67.75" x2="110.75" y1="26.1328125" y2="26.1328125"/><rect fill="#FEFECE" filter="url(#f1)" height="34.1328125" style="stroke: #A80036; stroke-width: 1.5;" width="73.0" x="52.75" y="686.0"/><text fill="#000000" font-size="12" lengthAdjust="spacingAndGlyphs" textLength="59.0" x="59.75" y="700.0">hardware:</text><line style="stroke: #A80036; stroke-width: 1.5;" x1="52.75" x2="125.75" y1="704.1328125" y2="704.1328125"/><path d="M89,42.254 C89,57.563 89,81.446 89,103.943 " fill="none" style="stroke: #A80036; stroke-width: 1.0; stroke-dasharray: 7.0,7.0;"/><path d="M89,224.154 C89,251.063 89,280.994 89,299.659 " fill="none" style="stroke: #A80036; stroke-width: 1.0; stroke-dasharray: 7.0,7.0;"/><text fill="#000000" font-size="13" lengthAdjust="spacingAndGlyphs" textLength="96.0" x="89.0" y="267.0">QtProxyFactory</text><path d="M89,350.09 C89,364.93 89,383.282 89,400.414 " fill="none" style="stroke: #A80036; stroke-width: 1.0;"/><polygon fill="#A80036" points="89.0,338.072,84.80005,344.072035,89.0001,350.072,93.20005,344.071965" style="stroke: #A80036; stroke-width: 1.0;"/><path d="M89,521.799 C89,540.28 89,558.883 89,571.98 " fill="none" style="stroke: #A80036; stroke-width: 1.0;"/><polygon fill="#A80036" points="89.0,509.731,84.80005,515.731035,89.0001,521.731,93.20005,515.730965" style="stroke: #A80036; stroke-width: 1.0;"/><path d="M89,610.164 C89,631.2778 89,665.7946 89,685.9572 " fill="none" style="stroke: #A80036; stroke-width: 1.0; stroke-dasharray: 7.0,7.0;"/><text fill="#000000" font-size="13" lengthAdjust="spacingAndGlyphs" textLength="49.0" x="89.0" y="653.0">pySerial</text></g></svg>