<?xml version="1.0" encoding="UTF-8" standalone="yes"?><svg xmlns="http://www.w3.org/2000/svg" xmlns:xlink="http://www.w3.org/1999/xlink" height="413pt" style="width:268px;height:413px;" version="1.1" viewBox="0 0 268 413" width="268pt"><defs><filter height="300%" id="f1" width="300%" x="-1" y="-1"><feGaussianBlur result="blurOut" stdDeviation="2"/><feColorMatrix in="blurOut" result="blurOut2" type="matrix" values="0 0 0 0 0 0 0 0 0 0 0 0 0 0 0 0 0 0 .4 0"/><feOffset dx="4" dy="4" in="blurOut2" result="blurOut3"/><feBlend in="SourceGraphic" in2="blurOut3" mode="normal"/></filter></defs><g><rect fill="#FEFECE" filter="url(#f1)" height="86.865234375" style="stroke: #A80036; stroke-width: 1.5;" width="179.0" x="5.75" y="208.5"/><ellipse cx="42.8" cy="224.5" fill="#ADD1B2" rx="11.0" ry="11.0" style="stroke: #A80036; stroke-width: 1.0;"/><path d="M45.5031,220.4292 Q45.6691,220.1304 45.8435,220.0059 Q46.0178,219.8813 46.2834,219.8813 Q46.6901,219.8813 46.8603,220.0972 Q47.0305,220.313 47.0305,220.8359 L47.0471,222.9941 Q47.0471,223.5669 46.8603,223.7661 Q46.6735,223.9653 46.1838,223.9653 Q45.8352,223.9653 45.6484,223.7993 Q45.4616,223.6333 45.3288,223.1851 Q45.113,222.3965 44.6398,222.052 Q44.1667,221.7075 43.3283,221.7075 Q42.05,221.7075 41.3693,222.5708 Q40.6887,223.4341 40.6887,225.0693 Q40.6887,226.6963 41.3776,227.5679 Q42.0666,228.4395 43.3449,228.4395 Q44.2165,228.4395 45.2666,227.8584 Q46.3166,227.2773 46.5905,227.2773 Q46.9143,227.2773 47.1342,227.5513 Q47.3542,227.8252 47.3542,228.2319 Q47.3542,228.9624 46.0676,229.6099 Q44.781,230.2573 43.1706,230.2573 Q40.9958,230.2573 39.6511,228.8213 Q38.3063,227.3853 38.3063,225.0693 Q38.3063,222.8364 39.6677,221.3589 Q41.029,219.8813 43.1208,219.8813 Q43.7102,219.8813 44.2829,220.0142 Q44.8557,220.147 45.5031,220.4292 Z "/><text fill="#000000" font-size="12" lengthAdjust="spacingAndGlyphs" textLength="98.0" x="61.699999999999996" y="229.43359375">Instrument : instr</text><line style="stroke: #A80036; stroke-width: 1.5;" x1="5.75" x2="184.75" y1="240.5" y2="240.5"/><text fill="#000000" font-size="11" lengthAdjust="spacingAndGlyphs" textLength="167.0" x="11.75" y="255.5">Parameter measure [read-only]</text><text fill="#000000" font-size="11" lengthAdjust="spacingAndGlyphs" textLength="78.0" x="11.75" y="268.455078125">Parameter unit</text><line style="stroke: #A80036; stroke-width: 1.5;" x1="5.75" x2="184.75" y1="274.41015625" y2="274.41015625"/><text fill="#000000" font-size="11" lengthAdjust="spacingAndGlyphs" textLength="73.0" x="11.75" y="289.41015625">Action reset()</text><rect fill="#FEFECE" filter="url(#f1)" height="48.0" style="stroke: #A80036; stroke-width: 1.5;" width="187.0" x="72.75" y="356.0"/><ellipse cx="87.75" cy="372.0" fill="#ADD1B2" rx="11.0" ry="11.0" style="stroke: #A80036; stroke-width: 1.0;"/><path d="M90.4531,367.9292 Q90.6191,367.6304 90.7935,367.5059 Q90.9678,367.3813 91.2334,367.3813 Q91.6401,367.3813 91.8103,367.5972 Q91.9805,367.813 91.9805,368.3359 L91.9971,370.4941 Q91.9971,371.0669 91.8103,371.2661 Q91.6235,371.4653 91.1338,371.4653 Q90.7852,371.4653 90.5984,371.2993 Q90.4116,371.1333 90.2788,370.6851 Q90.063,369.8965 89.5898,369.552 Q89.1167,369.2075 88.2783,369.2075 Q87,369.2075 86.3193,370.0708 Q85.6387,370.9341 85.6387,372.5693 Q85.6387,374.1963 86.3276,375.0679 Q87.0166,375.9395 88.2949,375.9395 Q89.1665,375.9395 90.2166,375.3584 Q91.2666,374.7773 91.5405,374.7773 Q91.8643,374.7773 92.0842,375.0513 Q92.3042,375.3252 92.3042,375.7319 Q92.3042,376.4624 91.0176,377.1099 Q89.731,377.7573 88.1206,377.7573 Q85.9458,377.7573 84.6011,376.3213 Q83.2563,374.8853 83.2563,372.5693 Q83.2563,370.3364 84.6177,368.8589 Q85.979,367.3813 88.0708,367.3813 Q88.6602,367.3813 89.2329,367.5142 Q89.8057,367.647 90.4531,367.9292 Z "/><text fill="#000000" font-size="12" lengthAdjust="spacingAndGlyphs" textLength="155.0" x="101.75" y="376.93359375">QtProxyFactory(Instrument)</text><line style="stroke: #A80036; stroke-width: 1.5;" x1="72.75" x2="259.75" y1="388.0" y2="388.0"/><line style="stroke: #A80036; stroke-width: 1.5;" x1="72.75" x2="259.75" y1="396.0" y2="396.0"/><rect fill="#FEFECE" filter="url(#f1)" height="138.685546875" style="stroke: #A80036; stroke-width: 1.5;" width="115.0" x="108.75" y="8.5"/><ellipse cx="140.85" cy="24.5" fill="#ADD1B2" rx="11.0" ry="11.0" style="stroke: #A80036; stroke-width: 1.0;"/><path d="M143.5531,20.4292 Q143.7191,20.1304 143.8935,20.0059 Q144.0678,19.8813 144.3334,19.8813 Q144.7401,19.8813 144.9103,20.0972 Q145.0805,20.313 145.0805,20.8359 L145.0971,22.9941 Q145.0971,23.5669 144.9103,23.7661 Q144.7235,23.9653 144.2338,23.9653 Q143.8852,23.9653 143.6984,23.7993 Q143.5116,23.6333 143.3788,23.1851 Q143.163,22.3965 142.6898,22.052 Q142.2167,21.7075 141.3783,21.7075 Q140.1,21.7075 139.4193,22.5708 Q138.7387,23.4341 138.7387,25.0693 Q138.7387,26.6963 139.4276,27.5679 Q140.1166,28.4395 141.3949,28.4395 Q142.2665,28.4395 143.3166,27.8584 Q144.3666,27.2773 144.6405,27.2773 Q144.9643,27.2773 145.1842,27.5513 Q145.4042,27.8252 145.4042,28.2319 Q145.4042,28.9624 144.1176,29.6099 Q142.831,30.2573 141.2206,30.2573 Q139.0458,30.2573 137.7011,28.8213 Q136.3563,27.3853 136.3563,25.0693 Q136.3563,22.8364 137.7177,21.3589 Q139.079,19.8813 141.1708,19.8813 Q141.7602,19.8813 142.3329,20.0142 Q142.9057,20.147 143.5531,20.4292 Z "/><text fill="#000000" font-size="12" lengthAdjust="spacingAndGlyphs" textLength="45.0" x="158.65" y="29.43359375">QtProxy</text><line style="stroke: #A80036; stroke-width: 1.5;" x1="108.75" x2="223.75" y1="40.5" y2="40.5"/><text fill="#000000" font-size="11" lengthAdjust="spacingAndGlyphs" textLength="103.0" x="114.75" y="55.5">Instrument __client</text><text fill="#000000" font-size="11" lengthAdjust="spacingAndGlyphs" textLength="81.0" x="114.75" y="68.455078125">Signal measure</text><text fill="#000000" font-size="11" lengthAdjust="spacingAndGlyphs" textLength="56.0" x="114.75" y="81.41015625">Signal unit</text><line style="stroke: #A80036; stroke-width: 1.5;" x1="108.75" x2="223.75" y1="87.365234375" y2="87.365234375"/><text fill="#000000" font-size="11" lengthAdjust="spacingAndGlyphs" textLength="100.0" x="114.75" y="102.365234375">get_measure() Slot</text><text fill="#000000" font-size="11" lengthAdjust="spacingAndGlyphs" textLength="75.0" x="114.75" y="115.3203125">get_unit() Slot</text><text fill="#000000" font-size="11" lengthAdjust="spacingAndGlyphs" textLength="89.0" x="114.75" y="128.275390625">set_unit(str) Slot</text><text fill="#000000" font-size="11" lengthAdjust="spacingAndGlyphs" textLength="78.0" x="114.75" y="141.23046875">do_reset() Slot</text><ellipse cx="68.0" cy="78.0" fill="#FEFECE" filter="url(#f1)" rx="5.0" ry="5.0" style="stroke: #A80036; stroke-width: 1.5;"/><text fill="#000000" font-size="12" lengthAdjust="spacingAndGlyphs" textLength="47.0" x="44.5" y="95.0">QObject</text><path d="M73.3594,78 C85.0601,78 96.7608,78 108.461,78 " fill="none" style="stroke: #A80036; stroke-width: 1.0;"/><path d="M132.755,159.537 C125.812,176.358 118.752,193.459 112.646,208.252 " fill="none" style="stroke: #A80036; stroke-width: 1.0;"/><polygon fill="#A80036" points="137.531,147.96800000000002,131.35930000000002,151.91135,132.952,159.06,139.12369999999999,155.11665000000002" style="stroke: #A80036; stroke-width: 1.0;"/><path d="M179.088,355.8808 C187.479,339.6839 197.596,317.2231 202,296 C211.483,250.306 203.709,198.789 192.993,157.421 " fill="none" style="stroke: #A80036; stroke-width: 1.0; stroke-dasharray: 7.0,7.0;"/><polygon fill="#A80036" points="190.366,147.675,188.624,158.502,191.667,152.503,192.969,157.331,192.969,157.331,192.969,157.331,191.667,152.503,197.314,156.16,190.366,147.675,190.366,147.675" style="stroke: #A80036; stroke-width: 1.0;"/><path d="M119.037,295.658 C128.521,312.4878 139.227,331.4874 148.02,347.0911 " fill="none" style="stroke: #A80036; stroke-width: 1.0; stroke-dasharray: 7.0,7.0;"/><polygon fill="#A80036" points="152.952,355.8438,151.963,344.9226,150.497,351.4878,148.042,347.1317,148.042,347.1317,148.042,347.1317,150.497,351.4878,144.122,349.3409,152.952,355.8438,152.952,355.8438" style="stroke: #A80036; stroke-width: 1.0;"/></g></svg>